<svg width="800" height="900" viewBox="0 0 800 900" fill="none" xmlns="http://www.w3.org/2000/svg">
<path d="M520.111 774.621C506.4 771.394 493.984 763.685 485.145 752.935L411.081 662.837C408.368 659.548 404.236 657.657 399.734 657.657C395.233 657.657 391.101 659.548 388.387 662.837L314.119 752.955C305.321 763.624 292.987 771.291 279.379 774.539L250.519 781.425C273.212 807.47 297.077 832.857 322.012 857.607C379.528 914.67 421.955 914.177 479.265 855.818C502.843 831.809 525.537 806.792 547.285 781.014L520.131 774.621H520.111Z" fill="white"/>
<path d="M20.3726 368.945L171.542 332.89C181.018 330.629 189.528 325.366 195.551 318.069L326.596 159.067C344.541 137.277 371.285 124.8 399.94 124.8H400.001C428.677 124.8 455.42 137.339 473.345 159.17L604.02 318.11C610.063 325.469 618.635 330.752 628.173 332.993L781.459 369.089C784.542 358.688 787.441 348.204 790.134 337.638C830.814 178.225 739.998 78.7335 622.191 33.0166C551.458 5.57411 476.737 -0.161053 401.276 0.00339632C309.123 0.147289 218.492 7.97919 135.692 51.9283C31.2469 107.348 -18.4369 200.262 6.23031 312.683C10.4032 331.718 15.1308 350.465 20.3726 368.966V368.945Z" fill="white"/>
<path d="M586.177 603.244C568.068 598.989 551.684 588.814 540.029 574.63L427.259 437.438C420.64 429.401 410.67 424.776 399.899 424.776H399.878C389.107 424.776 379.137 429.38 372.518 437.397L259.419 574.63C247.825 588.711 231.545 598.804 213.558 603.101L132.691 622.382C157.441 662.508 184.862 701.195 214.689 738.545L267.744 725.882C270.828 725.142 273.582 723.457 275.515 721.134L349.783 631.016C362.014 616.154 380.227 607.643 399.714 607.643H399.755C419.263 607.643 437.455 616.195 449.686 631.077L523.749 721.175C525.681 723.519 528.456 725.225 531.56 725.944L582.251 737.887C598.306 717.331 613.805 696.405 628.708 675.191C641.083 657.574 653.005 639.732 664.434 621.663L586.177 603.224V603.244Z" fill="white"/>
<path d="M616.703 381.67C596.558 376.921 578.346 365.636 565.375 349.869L434.7 190.929C426.293 180.692 413.61 174.813 399.94 174.813H399.919C386.25 174.813 373.587 180.671 365.159 190.888L234.114 349.89C221.226 365.533 203.116 376.777 183.136 381.546L35.2554 416.821C54.2697 472.733 78.1559 526.159 106.338 577.303L201.924 554.506C209.365 552.738 216.066 548.606 220.794 542.871L333.893 405.638C350.05 386.048 374.08 374.804 399.837 374.804H399.899C425.676 374.804 449.726 386.089 465.863 405.72L578.633 542.912C583.382 548.688 590.124 552.841 597.627 554.609L691.527 576.727C720.819 525.542 745.959 472.363 765.858 416.841L616.682 381.711L616.703 381.67Z" fill="white"/>
</svg>
